<mxfile host="app.diagrams.net" modified="2021-04-01T12:42:58.989Z" agent="5.0 (Macintosh; Intel Mac OS X 11_2_3) AppleWebKit/537.36 (KHTML, like Gecko) Chrome/88.0.4324.96 Safari/537.36" etag="hMF8l2sWY6DLaJ3WGadI" version="14.5.3" type="github">
  <diagram id="bEX31efKxSJHf-s3sODm" name="第 1 页">
    <mxGraphModel dx="1127" dy="771" grid="1" gridSize="10" guides="1" tooltips="1" connect="1" arrows="1" fold="1" page="1" pageScale="1" pageWidth="827" pageHeight="1169" math="0" shadow="0">
      <root>
        <mxCell id="0" />
        <mxCell id="1" parent="0" />
        <mxCell id="VjYMC8rWytREGVeJ94fa-2" value="" style="rounded=0;whiteSpace=wrap;html=1;" vertex="1" parent="1">
          <mxGeometry x="230" y="160" width="450" height="200" as="geometry" />
        </mxCell>
        <mxCell id="VjYMC8rWytREGVeJ94fa-4" value="推" style="rounded=0;whiteSpace=wrap;html=1;fillColor=#fff2cc;strokeColor=#d6b656;" vertex="1" parent="1">
          <mxGeometry x="260" y="190" width="120" height="60" as="geometry" />
        </mxCell>
        <mxCell id="VjYMC8rWytREGVeJ94fa-5" value="栈" style="rounded=0;whiteSpace=wrap;html=1;fillColor=#d5e8d4;strokeColor=#82b366;" vertex="1" parent="1">
          <mxGeometry x="413" y="190" width="120" height="60" as="geometry" />
        </mxCell>
        <mxCell id="VjYMC8rWytREGVeJ94fa-6" value="方法区" style="rounded=0;whiteSpace=wrap;html=1;fillColor=#fff2cc;strokeColor=#d6b656;" vertex="1" parent="1">
          <mxGeometry x="260" y="264" width="120" height="60" as="geometry" />
        </mxCell>
        <mxCell id="VjYMC8rWytREGVeJ94fa-7" value="本地方法区" style="rounded=0;whiteSpace=wrap;html=1;fillColor=#d5e8d4;strokeColor=#82b366;" vertex="1" parent="1">
          <mxGeometry x="550" y="190" width="120" height="140" as="geometry" />
        </mxCell>
        <mxCell id="VjYMC8rWytREGVeJ94fa-8" value="程序计数器" style="rounded=0;whiteSpace=wrap;html=1;fillColor=#d5e8d4;strokeColor=#82b366;" vertex="1" parent="1">
          <mxGeometry x="414" y="270" width="120" height="60" as="geometry" />
        </mxCell>
      </root>
    </mxGraphModel>
  </diagram>
</mxfile>
